/vscmnt/brussel_pixiu_data/_data_brussel/112/vsc11236/PredSimResults/SUBJ11mtu3D/worker9.mot
version=1
nRows=8
nColumns=50
inDegrees=yes
endheader
                time	         pelvis_tilt	         pelvis_list	     pelvis_rotation	           pelvis_tx	           pelvis_ty	           pelvis_tz	       hip_flexion_r	     hip_adduction_r	      hip_rotation_r	        knee_angle_r	       ankle_angle_r	         mtp_angle_r	       hip_flexion_l	     hip_adduction_l	      hip_rotation_l	        knee_angle_l	       ankle_angle_l	         mtp_angle_l	    lumbar_extension	      lumbar_bending	     lumbar_rotation	 ercspn_r/activation	 intobl_r/activation	 extobl_r/activation	    abd_r/activation	    add_r/activation	hamstrings_r/activation	bifemsh_r/activation	glut_max_r/activation	iliopsoas_r/activation	rect_fem_r/activation	  vasti_r/activation	gastroc_r/activation	 soleus_r/activation	tib_ant_r/activation	 ercspn_l/activation	 intobl_l/activation	 extobl_l/activation	    abd_l/activation	    add_l/activation	hamstrings_l/activation	bifemsh_l/activation	glut_max_l/activation	iliopsoas_l/activation	rect_fem_l/activation	  vasti_l/activation	gastroc_l/activation	 soleus_l/activation	tib_ant_l/activation	
          0.66222872	         -3.41805816	          0.74494096	         -6.13506691	          0.72845159	          0.94249846	          0.01130925	        -13.93504849	         -2.65217396	         -0.48983157	        -10.94954609	         11.52796848	         29.50394720	         30.41958815	         -2.83523183	         -4.14353789	         -8.61659192	          1.14255975	          0.26569427	        -14.11064705	          0.79155197	          4.74294841	          0.03831789	          0.01000032	          0.01000029	          0.04107054	          0.01001811	          0.01446439	          0.18736215	          0.01196615	          0.02428438	          0.01220833	          0.01000060	          0.12467755	          0.27356292	          0.01374103	          0.05197692	          0.17215909	          0.03822589	          0.01000009	          0.18191600	          0.05266092	          0.13431973	          0.09109267	          0.05312744	          0.03132741	          0.01000045	          0.01000032	          0.01000009	          0.46212500	
          0.67547329	         -3.50501346	          0.78167828	         -6.29139638	          0.74692721	          0.94067997	          0.00984285	        -14.62496994	         -2.92410558	         -0.71898082	        -11.45941341	         10.59705782	         31.27795292	         30.10479818	         -2.70313680	         -4.34716676	         -9.80787947	          0.63583551	          0.21631490	        -13.67163152	          0.42986501	          5.08631983	          0.03142174	          0.01000037	          0.01000160	          0.03364390	          0.01003419	          0.02125711	          0.15348246	          0.01379125	          0.01989378	          0.01000197	          0.01000421	          0.10213266	          0.25048423	          0.01125632	          0.04257839	          0.14102820	          0.03131365	          0.04792855	          0.16363408	          0.05985568	          0.11003190	          0.10997421	          0.04352061	          0.02566304	          0.01000038	          0.01220856	          0.01220750	          0.50975826	
          0.68871786	         -3.57590204	          0.81232080	         -6.42068662	          0.76563401	          0.93923157	          0.00829309	        -15.17470288	         -3.19369148	         -0.97072851	        -12.23754681	          9.51015862	         33.10172723	         29.77932749	         -2.59042652	         -4.55330627	        -11.03978175	          0.04909569	          0.20670883	        -13.21888303	          0.07629672	          5.41155278	          0.05135517	          0.01000015	          0.01000044	          0.02756020	          0.01000071	          0.01741590	          0.12572907	          0.01129765	          0.01629767	          0.01001242	          0.01094531	          0.08366440	          0.22545727	          0.01000009	          0.04551339	          0.11552658	          0.02565132	          0.09821564	          0.20256763	          0.04971217	          0.09013571	          0.12815948	          0.03565095	          0.02102297	          0.01000026	          0.01000105	          0.01000012	          0.57187998	
          0.70196244	         -3.63077974	          0.82279456	         -6.51873672	          0.78430803	          0.93832866	          0.00666199	        -15.48512795	         -3.44441602	         -1.23618324	        -13.42339017	          8.26138324	         34.95310711	         29.56028430	         -2.50189705	         -4.77673566	        -12.45644663	         -0.58024785	          0.16155463	        -12.78501336	         -0.25259704	          5.71320104	          0.08119524	          0.01000024	          0.01000035	          0.02257660	          0.05140570	          0.01704358	          0.10299424	          0.01058714	          0.01335203	          0.01000346	          0.01272251	          0.06853567	          0.18978616	          0.01000010	          0.05424133	          0.09463632	          0.02101289	          0.13198634	          0.25651191	          0.04705333	          0.07383713	          0.13537115	          0.02920434	          0.01722203	          0.03468771	          0.01000045	          0.01000020	          0.61165923	
          0.71520701	         -3.66912559	          0.81318817	         -6.58722310	          0.80283244	          0.93805731	          0.00497305	        -15.47509273	         -3.67597036	         -1.51551633	        -15.14728178	          6.88307467	         36.73655521	         29.43182861	         -2.43153267	         -4.98440575	        -14.10279767	         -0.87030783	          0.10838336	        -12.37901351	         -0.55741841	          5.98805263	          0.10684432	          0.01000025	          0.01000036	          0.01849416	          0.12444914	          0.01397525	          0.08437055	          0.01000039	          0.01097724	          0.01000190	          0.01042240	          0.05614262	          0.15546779	          0.01000008	          0.05398712	          0.07752358	          0.01721322	          0.15710943	          0.29595449	          0.04765303	          0.06048584	          0.15256722	          0.02392345	          0.01410851	          0.06971265	          0.01000060	          0.01000021	          0.61304585	
          0.72845159	         -3.69254859	          0.78473178	         -6.62342947	          0.82105784	          0.93851523	          0.00325641	        -15.04125245	         -3.88902010	         -1.81543473	        -17.56691380	          5.40080827	         38.30787983	         29.31674643	         -2.36542924	         -5.13954656	        -15.83792441	         -0.76349817	          0.06054160	        -12.01277894	         -0.84156143	          6.22914486	          0.12474402	          0.01000032	          0.01000037	          0.01514993	          0.18097714	          0.02227329	          0.06911477	          0.01000018	          0.01489567	          0.01000053	          0.01000015	          0.04599055	          0.12735508	          0.01000014	          0.04422667	          0.06350527	          0.01410064	          0.17205367	          0.33082901	          0.04884627	          0.04954895	          0.16004277	          0.01959749	          0.01155838	          0.08835420	          0.01000050	          0.01000013	          0.57525752	
          0.74169616	         -3.70199979	          0.73919025	         -6.62612640	          0.83887431	          0.93969990	          0.00153798	        -14.12232036	         -4.08986393	         -2.15372381	        -20.76586000	          3.86292150	         39.39531022	         29.15639858	         -2.29206912	         -5.21993299	        -17.54438951	         -0.27996893	          0.03585984	        -11.69421800	         -1.10865419	          6.43197581	          0.13433503	          0.01000046	          0.01000037	          0.01241043	          0.21780678	          0.04228795	          0.05661805	          0.01000013	          0.01220612	          0.01000035	          0.01000009	          0.03767425	          0.10432589	          0.01000019	          0.03622968	          0.05202185	          0.01155092	          0.17926125	          0.35459728	          0.05235459	          0.04059005	          0.15339146	          0.01605378	          0.01000234	          0.09957678	          0.01000033	          0.01000008	          0.50368205	
          0.75494074	         -3.69775045	          0.67341249	         -6.59385394	          0.85625375	          0.94153004	         -0.00016094	        -12.70771347	         -4.28899264	         -2.54402144	        -24.76441358	          2.37316124	         39.57339447	         28.88563193	         -2.20759394	         -5.22063136	        -19.08653988	          0.48862316	          0.09158794	        -11.42273577	         -1.35624324	          6.59321811	          0.12990923	          0.01000047	          0.01000047	          0.01016632	          0.25386179	          0.04933278	          0.04638235	          0.01000011	          0.01000497	          0.01000026	          0.01000006	          0.03086176	          0.08546099	          0.01000010	          0.02967854	          0.04261494	          0.01000015	          0.18533628	          0.35314835	          0.05754346	          0.03325175	          0.13374181	          0.01315088	          0.01000196	          0.13000836	          0.01000069	          0.01000017	          0.41802644	
